<mxfile host="app.diagrams.net" modified="2022-10-17T16:03:39.250Z" agent="5.0 (Windows NT 10.0; Win64; x64) AppleWebKit/537.36 (KHTML, like Gecko) Chrome/106.0.0.0 Safari/537.36" etag="q-11-tCAGO1WA6lNQnHS" version="20.4.1" type="github">
  <diagram id="jWwhnwZCd1Nw6Iit5-HY" name="第 1 页">
    <mxGraphModel dx="1038" dy="623" grid="1" gridSize="10" guides="1" tooltips="1" connect="1" arrows="1" fold="1" page="1" pageScale="1" pageWidth="827" pageHeight="1169" math="0" shadow="0">
      <root>
        <mxCell id="0" />
        <mxCell id="1" parent="0" />
        <mxCell id="8H8qLYiNE_aUQUN-0Z8V-6" value="threats" style="rounded=1;whiteSpace=wrap;html=1;fontSize=20;" vertex="1" parent="1">
          <mxGeometry x="140" y="180" width="120" height="60" as="geometry" />
        </mxCell>
        <mxCell id="8H8qLYiNE_aUQUN-0Z8V-7" value="losses" style="rounded=1;whiteSpace=wrap;html=1;fontSize=20;" vertex="1" parent="1">
          <mxGeometry x="540" y="180" width="120" height="60" as="geometry" />
        </mxCell>
        <mxCell id="8H8qLYiNE_aUQUN-0Z8V-8" value="" style="endArrow=classic;html=1;rounded=0;strokeWidth=2;fontSize=20;entryX=0;entryY=0.5;entryDx=0;entryDy=0;" edge="1" parent="1" target="8H8qLYiNE_aUQUN-0Z8V-7">
          <mxGeometry relative="1" as="geometry">
            <mxPoint x="260" y="209.5" as="sourcePoint" />
            <mxPoint x="420" y="209.5" as="targetPoint" />
          </mxGeometry>
        </mxCell>
        <mxCell id="8H8qLYiNE_aUQUN-0Z8V-9" value="Label" style="edgeLabel;resizable=0;html=1;align=center;verticalAlign=middle;fontSize=20;" connectable="0" vertex="1" parent="8H8qLYiNE_aUQUN-0Z8V-8">
          <mxGeometry relative="1" as="geometry" />
        </mxCell>
        <mxCell id="8H8qLYiNE_aUQUN-0Z8V-10" value="cause" style="edgeLabel;resizable=0;html=1;align=left;verticalAlign=bottom;fontSize=20;" connectable="0" vertex="1" parent="8H8qLYiNE_aUQUN-0Z8V-8">
          <mxGeometry x="-1" relative="1" as="geometry">
            <mxPoint x="20" as="offset" />
          </mxGeometry>
        </mxCell>
        <mxCell id="8H8qLYiNE_aUQUN-0Z8V-11" value="effect" style="edgeLabel;resizable=0;html=1;align=right;verticalAlign=bottom;fontSize=20;" connectable="0" vertex="1" parent="8H8qLYiNE_aUQUN-0Z8V-8">
          <mxGeometry x="1" relative="1" as="geometry">
            <mxPoint x="-20" as="offset" />
          </mxGeometry>
        </mxCell>
      </root>
    </mxGraphModel>
  </diagram>
</mxfile>
